<svg id="图层_17" data-name="图层 17" width="40px" height="40px" xmlns="http://www.w3.org/2000/svg" viewBox="0 0 40 40"><defs><style>.cls-1{fill:#e03a3a;}.cls-2{isolation:isolate;}.cls-3{fill:#fff;}</style></defs><title>abt_0_1</title><circle class="cls-1" cx="20" cy="20" r="20"/><g class="cls-2"><path class="cls-3" d="M12.33,24.55h.74V22.12a.63.63,0,0,1,.18-.46.78.78,0,0,1,.46-.21h4.48V18.77A3.35,3.35,0,0,0,18,17.58a3.3,3.3,0,0,0-.66-1,3.68,3.68,0,0,1-1-2.51,3.59,3.59,0,0,1,.29-1.41,3.66,3.66,0,0,1,2-2,3.77,3.77,0,0,1,2.85,0,3.52,3.52,0,0,1,1.15.77l.06,0a3.83,3.83,0,0,1,.79,1.17,3.69,3.69,0,0,1,0,2.77,3.42,3.42,0,0,1-.7,1.12l0,.06a3.3,3.3,0,0,0-.65,1,3.34,3.34,0,0,0-.21,1.21v2.68H26.3a.78.78,0,0,1,.46.21.63.63,0,0,1,.18.46v2.43h.74a.35.35,0,0,1,.26.1.38.38,0,0,1,.11.26V26.6a.38.38,0,0,1-.37.4H12.33a.38.38,0,0,1-.37-.4V24.91a.38.38,0,0,1,.11-.26A.35.35,0,0,1,12.33,24.55Zm15,.76H12.73v.92H27.28Zm-12.89-.76H25.62V22.77H21.26a.7.7,0,0,1-.49-.19.62.62,0,0,1-.18-.46V18.77a4.29,4.29,0,0,1,.31-1.65,5,5,0,0,1,.89-1.44l0,0a2.07,2.07,0,0,0,.46-.72,2.53,2.53,0,0,0,.15-.87,2.4,2.4,0,0,0-.71-1.69l0,0A2.31,2.31,0,0,0,20,11.69a2.25,2.25,0,0,0-1.67.67,2.4,2.4,0,0,0-.71,1.69,2.32,2.32,0,0,0,.17.87,2.44,2.44,0,0,0,.48.76,4.79,4.79,0,0,1,.89,1.42,4.62,4.62,0,0,1,.3,1.67v3.35a.62.62,0,0,1-.18.46.64.64,0,0,1-.46.19H14.39Z"/></g></svg>
