<!-- Generated by IcoMoon.io -->
<svg version="1.1" xmlns="http://www.w3.org/2000/svg" width="32" height="32" viewBox="0 0 32 32">
<title>adduser</title>
<path d="M26.872 23.863h-2.744v-2.744c0-0.622-0.506-1.128-1.128-1.128s-1.128 0.506-1.128 1.128v2.744h-2.744c-0.622 0-1.128 0.506-1.128 1.128s0.506 1.128 1.128 1.128h2.744v2.744c0 0.622 0.506 1.128 1.128 1.128s1.128-0.506 1.128-1.128v-2.744h2.744c0.622 0 1.128-0.506 1.128-1.128 0-0.625-0.506-1.128-1.128-1.128zM23 9.016c0-3.875-3.134-7.016-7-7.016s-7 3.141-7 7.016 3.134 7.016 7 7.016 7-3.141 7-7.016zM16 13.775c-2.622 0-4.75-2.131-4.75-4.759s2.128-4.759 4.75-4.759 4.75 2.131 4.75 4.759-2.128 4.759-4.75 4.759zM22.563 17.988c-1.887-1.238-4.141-1.956-6.563-1.956-6.628 0-12 5.384-12 12.028h0.003c0 0.022-0.003 0.041-0.003 0.063 0 0.622 0.503 1.128 1.125 1.128s1.125-0.506 1.125-1.128c0-0.022 0-0.041-0.003-0.063h0.003c0-5.397 4.366-9.772 9.75-9.772 1.225 0 2.397 0.225 3.475 0.641 0.919-0.538 1.966-0.872 3.087-0.941z"></path>
</svg>
