<?xml version="1.0" encoding="utf-8"?>
<!-- Generator: Adobe Illustrator 22.1.0, SVG Export Plug-In . SVG Version: 6.00 Build 0)  -->
<svg version="1.1" id="图层_8" width="40px" height="40px" xmlns="http://www.w3.org/2000/svg" xmlns:xlink="http://www.w3.org/1999/xlink" x="0px" y="0px"
	 viewBox="0 0 40 40" style="enable-background:new 0 0 40 40;" xml:space="preserve">
<style type="text/css">
	.st0{fill:#FFFFFF;}
	.st1{fill:#1BA5FA;}
</style>
<g>
	<path class="st0" d="M2,39.5c-0.8,0-1.5-0.7-1.5-1.5V2c0-0.8,0.7-1.5,1.5-1.5h36c0.8,0,1.5,0.7,1.5,1.5v36c0,0.8-0.7,1.5-1.5,1.5H2
		z"/>
	<g>
		<path class="st1" d="M38,1c0.6,0,1,0.4,1,1v36c0,0.6-0.4,1-1,1H2c-0.6,0-1-0.4-1-1V2c0-0.6,0.4-1,1-1H38 M38,0H2C0.9,0,0,0.9,0,2
			v36c0,1.1,0.9,2,2,2h36c1.1,0,2-0.9,2-2V2C40,0.9,39.1,0,38,0L38,0z"/>
	</g>
</g>
<path class="st1" d="M31.7,19.8h-1.8c-0.2,0-0.3-0.2-0.3-0.3v-3.6c0-0.2,0.2-0.3,0.3-0.3h1.8c0.2,0,0.3,0.2,0.3,0.3v3.6
	C32.1,19.6,32,19.8,31.7,19.8z M10.8,13.6c0-1.1,0.7-2.2,1.7-2.6l-1.6-2.9c-0.1-0.2,0-0.4,0.2-0.5l0.5-0.3c0.2-0.1,0.4,0,0.5,0.2
	l1.8,3.2h12.4l1.8-3.2c0.1-0.2,0.3-0.3,0.5-0.2L29,7.6c0.2,0.1,0.3,0.3,0.2,0.5l-1.6,2.8c1,0.4,1.6,1.5,1.6,2.6v10.8H10.8V13.6z
	 M24.1,20.1c1.3,0,2.3-1,2.3-2.3s-1-2.3-2.3-2.3s-2.3,1-2.3,2.3C21.9,19,22.8,20.1,24.1,20.1z M15.9,20.1c1.3,0,2.3-1,2.3-2.3
	s-1-2.3-2.3-2.3s-2.3,1-2.3,2.3C13.6,19,14.6,20.1,15.9,20.1z M10.1,19.8H8.3c-0.2,0-0.3-0.2-0.3-0.3v-3.6c0-0.2,0.2-0.3,0.3-0.3
	h1.8c0.2,0,0.3,0.2,0.3,0.3v3.6C10.5,19.6,10.3,19.8,10.1,19.8z"/>
<g>
	<g>
		<path class="st1" d="M28.8,26.4c-0.7,0.4-2.9,2.3-3.6,2.4c-0.8,0.1-2.8-0.1-4.3-0.2c-1.7-0.2-1-0.8-0.8-0.9s3.5-0.2,4.5-0.4
			c1-0.1,0.8-1.1-0.3-1.1c-1.1,0-6-0.4-7.6-0.3s-4.1,2.3-4.1,2.3l0.1,0.3l3.5,3.1h0.5c0,0,0.9-0.5,1.6-0.6s4.7,0.3,6,0.1
			c1.4-0.2,4.9-3.1,5.7-3.8c0.4-0.3,0.6-0.8,0.6-0.9C30.2,25.9,29.2,26.1,28.8,26.4L28.8,26.4z M11.9,28.9c-0.3-0.3-0.7-0.2-0.9,0
			S9.9,29.8,9.6,30c-0.4,0.3,0,0.7,0.2,1c0.2,0.2,2.7,2.5,3.1,2.9s0.7,0.3,1,0.1s0.9-0.8,1.3-1.1c0.4-0.3,0.4-0.6,0.1-0.9
			C15.1,31.6,12.3,29.1,11.9,28.9L11.9,28.9z"/>
	</g>
</g>
</svg>
