<?xml version="1.0" encoding="utf-8"?>
<!-- Generator: Adobe Illustrator 22.1.0, SVG Export Plug-In . SVG Version: 6.00 Build 0)  -->
<svg version="1.1" id="图层_4" width="40px" height="40px" xmlns="http://www.w3.org/2000/svg" xmlns:xlink="http://www.w3.org/1999/xlink" x="0px" y="0px"
	 viewBox="0 0 40 40" style="enable-background:new 0 0 40 40;" xml:space="preserve">
<style type="text/css">
	.st0{fill:#FFFFFF;}
	.st1{fill:#1BA5FA;}
</style>
<g>
	<path class="st0" d="M2,39.5c-0.8,0-1.5-0.7-1.5-1.5V2c0-0.8,0.7-1.5,1.5-1.5h36c0.8,0,1.5,0.7,1.5,1.5v36c0,0.8-0.7,1.5-1.5,1.5H2
		z"/>
	<g>
		<path class="st1" d="M38,1c0.6,0,1,0.4,1,1v36c0,0.6-0.4,1-1,1H2c-0.6,0-1-0.4-1-1V2c0-0.6,0.4-1,1-1H38 M38,0H2C0.9,0,0,0.9,0,2
			v36c0,1.1,0.9,2,2,2h36c1.1,0,2-0.9,2-2V2C40,0.9,39.1,0,38,0L38,0z"/>
	</g>
</g>
<g>
	<g>
		<path class="st1" d="M32.8,13.6H7.2V8.2c0-0.6,0.5-1.1,1.1-1.1h23.5c0.6,0,1.1,0.5,1.1,1.1V13.6z M13.6,32.8H8.2
			c-0.6,0-1.1-0.5-1.1-1.1v-16h6.4V32.8z M31.8,32.8h-16V15.7h17.1v16C32.8,32.4,32.4,32.8,31.8,32.8L31.8,32.8z M31.8,32.8"/>
	</g>
</g>
</svg>
